<?xml version="1.0" encoding="iso-8859-1"?>
<!-- Generator: Adobe Illustrator 18.0.0, SVG Export Plug-In . SVG Version: 6.00 Build 0)  -->
<!DOCTYPE svg PUBLIC "-//W3C//DTD SVG 1.1//EN" "http://www.w3.org/Graphics/SVG/1.1/DTD/svg11.dtd">
<svg version="1.1" id="Capa_1" xmlns="http://www.w3.org/2000/svg" xmlns:xlink="http://www.w3.org/1999/xlink" x="0px" y="0px"
	 viewBox="0 0 55 55" style="enable-background:new 0 0 55 55;" xml:space="preserve">
<g>
	<path style="fill:#F4C44E;" d="M55,31.005H13c0,11.598,9.402,21,21,21S55,42.602,55,31.005z"/>
	<path style="fill:#F9EA80;" d="M51,31.005H17c0,9.389,7.611,17,17,17S51,40.393,51,31.005z"/>
	<rect x="33" y="31.005" style="fill:#F9DA49;" width="2" height="17"/>
	
		<rect x="31.515" y="36.005" transform="matrix(0.7071 0.7071 -0.7071 0.7071 37.8819 -17.4459)" style="fill:#F9DA49;" width="16.971" height="2"/>
	
		<rect x="27" y="28.519" transform="matrix(0.7071 0.7071 -0.7071 0.7071 34.3672 -8.9606)" style="fill:#F9DA49;" width="2" height="16.971"/>
	<path style="fill:#F9D70B;" d="M47.983,11.284l0.397-0.397c1.556-1.556,1.556-4.101,0-5.657c-1.556-1.556-4.101-1.556-5.657,0
		l-0.24,0.24c-9.091-6.132-23.107-3.763-32.994,6.124S-2.767,35.498,3.365,44.589l-0.24,0.24c-1.556,1.556-1.556,4.101,0,5.657
		s4.101,1.556,5.657,0l0.397-0.397c5.548,3.31,12.717,3.647,19.639,1.245C19.731,49.023,13,40.811,13,31.005h36.202
		C51.635,24.057,51.306,16.854,47.983,11.284z M32.885,9.024c-0.435,1.205-1.612,1.551-2.755,1.293
		c0.588,0.133-0.089,0.004-0.21-0.007c-0.155-0.014-0.31-0.027-0.465-0.029c-0.051-0.001-0.101,0-0.152,0
		c-0.026,0.002-0.051,0.004-0.094,0.007c-0.167,0.018-0.333,0.039-0.499,0.064c-1.159,0.175-2.283-0.584-2.485-1.758
		c-0.196-1.137,0.598-2.31,1.758-2.485c1.244-0.188,2.392-0.115,3.609,0.16C32.739,6.528,33.246,8.024,32.885,9.024z"/>
</g>
<g>
</g>
<g>
</g>
<g>
</g>
<g>
</g>
<g>
</g>
<g>
</g>
<g>
</g>
<g>
</g>
<g>
</g>
<g>
</g>
<g>
</g>
<g>
</g>
<g>
</g>
<g>
</g>
<g>
</g>
</svg>
