<?xml version="1.0" encoding="iso-8859-1"?>
<!-- Generator: Adobe Illustrator 19.0.0, SVG Export Plug-In . SVG Version: 6.00 Build 0)  -->
<svg version="1.1" id="Capa_1" xmlns="http://www.w3.org/2000/svg" xmlns:xlink="http://www.w3.org/1999/xlink" x="0px" y="0px"
	 viewBox="0 0 512.001 512.001" style="enable-background:new 0 0 512.001 512.001;" xml:space="preserve">
<g transform="matrix(1.25 0 0 -1.25 0 45)">
	<path style="fill:#E1E8ED;" d="M409.6-168.8c0-113.105-91.692-204.797-204.797-204.797S0.006-281.905,0.006-168.8
		S91.698,35.997,204.803,35.997S409.6-55.695,409.6-168.8"/>
	<path style="fill:#CCD6DD;" d="M341.335-168.8c0-75.411-61.12-136.532-136.532-136.532S68.272-244.211,68.272-168.8
		s61.12,136.532,136.532,136.532S341.335-93.39,341.335-168.8"/>
	<path style="fill:#E1E8ED;" d="M329.957-168.8c0-69.119-56.035-125.154-125.154-125.154c-69.131,0-125.154,56.035-125.154,125.154
		c0,69.131,56.023,125.154,125.154,125.154C273.922-43.646,329.957-99.67,329.957-168.8"/>
	<g>
		<!-- <path style="fill:#99AAB5;" d="M102.405,35.997c-6.28,0-11.378-5.097-11.378-11.378v-79.525c0-0.038-0.006-0.074-0.006-0.112
			c0-0.02,0.003-0.039,0.003-0.059c-0.029-6.256-5.112-11.324-11.375-11.324c-6.28,0-11.378,5.097-11.378,11.378V24.62
			c0,6.28-5.097,11.378-11.378,11.378S45.516,30.9,45.516,24.62v-79.525c0-0.038-0.006-0.074-0.006-0.112
			c0-0.02,0.003-0.039,0.003-0.059c-0.029-6.256-5.112-11.324-11.375-11.324c-6.28,0-11.378,5.097-11.378,11.378V24.62
			c0,6.28-5.097,11.378-11.378,11.378S0.006,30.9,0.006,24.62v-79.525C0.005-54.944,0-54.98,0-55.019
			c0-0.041,0.006-0.081,0.006-0.122c0.016-35.42,7.432-65.414,34.132-75.711v-219.991c0-12.572,10.195-22.755,22.755-22.755
			s22.755,10.183,22.755,22.755v219.991c26.729,10.308,34.133,40.357,34.133,75.827v79.643
			C113.782,30.9,108.685,35.997,102.405,35.997z"/> -->
		<!-- <path style="fill:#99AAB5;" d="M364.09,35.997c-22.755,0-56.888-56.888-56.888-125.142c0-51.459,16.288-74.991,34.133-85.333
			v-176.364c0-12.572,10.195-22.755,22.755-22.755c12.572,0,22.755,10.183,22.755,22.755v170.664v56.888V1.865
			C386.845,24.62,375.468,35.997,364.09,35.997z"/> -->
	</g>
</g>
<g>
</g>
<g>
</g>
<g>
</g>
<g>
</g>
<g>
</g>
<g>
</g>
<g>
</g>
<g>
</g>
<g>
</g>
<g>
</g>
<g>
</g>
<g>
</g>
<g>
</g>
<g>
</g>
<g>
</g>
</svg>
