<?xml version="1.0" encoding="iso-8859-1"?>
<!-- Generator: Adobe Illustrator 18.0.0, SVG Export Plug-In . SVG Version: 6.00 Build 0)  -->
<!DOCTYPE svg PUBLIC "-//W3C//DTD SVG 1.1//EN" "http://www.w3.org/Graphics/SVG/1.1/DTD/svg11.dtd">
<svg version="1.1" id="Capa_1" xmlns="http://www.w3.org/2000/svg" xmlns:xlink="http://www.w3.org/1999/xlink" x="0px" y="0px"
	 viewBox="0 0 56 56" style="enable-background:new 0 0 56 56;" xml:space="preserve">
<g>
	<path style="fill:#FFCE72;" d="M28,0C12.536,0,0,12.536,0,28c0,7.627,3.054,14.538,8,19.588V51c0,1.1,0.9,2,2,2s2-0.9,2-2v-0.027
		C16.536,54.138,22.049,56,28,56c15.464,0,28-12.536,28-28S43.464,0,28,0z"/>
	<path style="fill:#FFF1C6;" d="M52,28C52,14.745,41.255,4,28,4c-3.197,0-6.246,0.63-9.035,1.765
		C18.937,6.019,18.942,6.279,19,6.537c1.102,4.87-1.656,6.573-3.273,6.463c-1.76-0.119-2.279-2.706-2.355-4.021
		C7.674,13.367,4,20.253,4,28c0,4.905,1.474,9.464,4,13.265V51c0,1.1,0.9,2,2,2s2-0.9,2-2v-5.116C16.246,49.686,21.852,52,28,52
		c1.119,0,2.218-0.083,3.296-0.231c-0.006,0.168-0.026,0.34-0.06,0.513c-0.221,1.133-0.209,2.543,2.279,2.711
		c1.617,0.109,4.25-1.194,2-3.779c-0.096-0.11-0.154-0.231-0.199-0.355C44.993,47.766,52,38.703,52,28z"/>
	<path style="fill:#659C35;" d="M46.198,26.333c-0.515,0-1.01-0.175-1.415-0.504c-0.466-0.379-0.756-0.918-0.818-1.516
		c-0.009-0.086-0.054-0.14-0.091-0.169c-0.036-0.029-0.099-0.062-0.183-0.054c-1.243,0.118-2.342-0.774-2.469-2.009
		c-0.014-0.136-0.134-0.23-0.275-0.223c-0.548,0.037-1.041-0.346-1.096-0.894c-0.056-0.549,0.343-1.04,0.893-1.097
		c1.236-0.118,2.341,0.774,2.468,2.008c0.014,0.138,0.14,0.238,0.274,0.224c0.6-0.061,1.183,0.112,1.65,0.492
		c0.466,0.379,0.757,0.917,0.818,1.516c0.009,0.086,0.054,0.14,0.091,0.169c0.037,0.03,0.099,0.064,0.183,0.054
		c0.549-0.047,1.041,0.343,1.098,0.892c0.057,0.55-0.342,1.041-0.892,1.099C46.355,26.329,46.277,26.333,46.198,26.333z"/>
	<path style="fill:#659C35;" d="M23,15c-0.093,0-0.187-0.013-0.28-0.04c-0.53-0.154-0.835-0.71-0.68-1.24
		c0.347-1.19,1.599-1.883,2.79-1.53c0.132,0.04,0.271-0.037,0.31-0.17c0.347-1.191,1.598-1.882,2.79-1.53
		c0.133,0.038,0.271-0.037,0.31-0.17c0.155-0.53,0.71-0.835,1.24-0.68c0.53,0.154,0.835,0.71,0.68,1.24
		c-0.168,0.577-0.551,1.054-1.078,1.343c-0.526,0.288-1.134,0.354-1.711,0.187c-0.135-0.041-0.272,0.038-0.311,0.171
		c-0.347,1.189-1.598,1.877-2.79,1.529c-0.134-0.042-0.271,0.038-0.31,0.171C23.833,14.717,23.434,15,23,15z"/>
	<path style="fill:#659C35;" d="M14.783,34.098c-1.071,0-2.023-0.77-2.215-1.859c-0.024-0.136-0.154-0.234-0.29-0.204
		c-0.592,0.101-1.188-0.029-1.681-0.373c-0.492-0.346-0.82-0.862-0.924-1.454c-0.015-0.085-0.064-0.135-0.103-0.162
		c-0.039-0.026-0.104-0.051-0.187-0.041c-0.543,0.096-1.063-0.267-1.159-0.811c-0.096-0.544,0.267-1.063,0.811-1.158
		c0.593-0.105,1.19,0.027,1.682,0.373c0.492,0.345,0.82,0.86,0.924,1.453c0.015,0.085,0.064,0.135,0.103,0.162
		c0.038,0.026,0.104,0.052,0.186,0.041c1.225-0.217,2.391,0.605,2.606,1.827c0.024,0.135,0.152,0.231,0.29,0.202
		c0.547-0.093,1.062,0.27,1.157,0.813c0.095,0.545-0.269,1.063-0.813,1.158C15.042,34.087,14.912,34.098,14.783,34.098z"/>
	<path style="fill:#659C35;" d="M21.04,29c-0.445,0-0.851-0.299-0.968-0.749c-0.15-0.582-0.066-1.188,0.239-1.706
		c0.305-0.518,0.793-0.886,1.375-1.036c0.133-0.035,0.213-0.172,0.179-0.306c-0.311-1.2,0.413-2.431,1.613-2.742
		c0.083-0.021,0.129-0.074,0.153-0.115c0.024-0.04,0.048-0.106,0.026-0.189c-0.138-0.535,0.183-1.08,0.717-1.219
		c0.533-0.142,1.08,0.183,1.219,0.717c0.15,0.582,0.066,1.188-0.239,1.706c-0.305,0.518-0.793,0.886-1.375,1.036
		c-0.133,0.035-0.213,0.172-0.179,0.305c0.312,1.201-0.412,2.432-1.613,2.743c-0.083,0.021-0.129,0.074-0.153,0.115
		c-0.024,0.04-0.048,0.106-0.026,0.189c0.138,0.535-0.183,1.08-0.717,1.219C21.208,28.99,21.123,29,21.04,29z"/>
	<path style="fill:#659C35;" d="M24.801,37.4c-0.093,0-0.187-0.013-0.28-0.04c-0.53-0.154-0.835-0.71-0.68-1.24
		c0.168-0.577,0.551-1.054,1.078-1.343c0.526-0.288,1.134-0.354,1.711-0.187c0.133,0.039,0.271-0.038,0.311-0.171
		c0.347-1.189,1.599-1.881,2.79-1.529c0.135,0.04,0.271-0.038,0.31-0.171c0.155-0.529,0.712-0.832,1.24-0.68
		c0.53,0.154,0.835,0.71,0.68,1.24c-0.347,1.191-1.6,1.882-2.79,1.53c-0.131-0.038-0.271,0.037-0.31,0.17
		c-0.347,1.191-1.598,1.88-2.79,1.53c-0.131-0.036-0.271,0.036-0.31,0.17C25.633,37.117,25.234,37.4,24.801,37.4z"/>
	<path style="fill:#CF6D61;" d="M30.899,45.661l-2.389-2.017c-0.606-0.512-0.683-1.418-0.171-2.025l0.727-0.861
		c0.512-0.606,1.418-0.683,2.025-0.171l2.389,2.017c0.606,0.512,0.683,1.418,0.171,2.025l-0.727,0.861
		C32.412,46.096,31.505,46.173,30.899,45.661z"/>
	<path style="fill:#C9604D;" d="M39.873,16.583l-3.082,0.528c-0.782,0.134-1.525-0.392-1.659-1.174l-0.19-1.11
		c-0.134-0.782,0.392-1.525,1.174-1.659l3.082-0.528c0.782-0.134,1.525,0.392,1.659,1.174l0.19,1.11
		C41.181,15.707,40.655,16.449,39.873,16.583z"/>
	<path style="fill:#C9604D;" d="M32.401,28.192l-3.12-0.197c-0.792-0.05-1.393-0.733-1.343-1.525l0.071-1.124
		c0.05-0.792,0.733-1.393,1.525-1.343l3.12,0.197c0.792,0.05,1.393,0.733,1.343,1.525l-0.071,1.124
		C33.876,27.641,33.193,28.243,32.401,28.192z"/>
	<path style="fill:#C9604D;" d="M18.401,42.192l-3.12-0.197c-0.792-0.05-1.393-0.733-1.343-1.525l0.071-1.124
		c0.05-0.792,0.733-1.393,1.525-1.343l3.12,0.197c0.792,0.05,1.393,0.733,1.343,1.525l-0.071,1.124
		C19.876,41.641,19.193,42.243,18.401,42.192z"/>
	<path style="fill:#C9604D;" d="M44.466,36.192l-3.12-0.197c-0.792-0.05-1.393-0.733-1.343-1.525l0.071-1.124
		c0.05-0.792,0.733-1.393,1.525-1.343l3.12,0.197c0.792,0.05,1.393,0.733,1.343,1.525l-0.071,1.124
		C45.941,35.641,45.258,36.243,44.466,36.192z"/>
	<path style="fill:#C9604D;" d="M14.168,24.868l-3.049-0.692c-0.774-0.176-1.259-0.945-1.083-1.719l0.53-2.338
		c0.176-0.774,0.945-1.259,1.719-1.083l3.049,0.692c0.774,0.176,1.259,0.945,1.083,1.719l-0.53,2.338
		C15.712,24.558,14.942,25.043,14.168,24.868z"/>
</g>
<g>
</g>
<g>
</g>
<g>
</g>
<g>
</g>
<g>
</g>
<g>
</g>
<g>
</g>
<g>
</g>
<g>
</g>
<g>
</g>
<g>
</g>
<g>
</g>
<g>
</g>
<g>
</g>
<g>
</g>
</svg>
